<?xml version="1.0" encoding="UTF-8"?>
<svg version="1.1" xmlns="http://www.w3.org/2000/svg" width="40" height="40">
<path d="M0 0 C1.58984375 1.4609375 1.58984375 1.4609375 3 3 C5.66589008 3.54138267 5.66589008 3.54138267 8.5625 3.625 C13.83856502 3.91928251 13.83856502 3.91928251 16 5 C16.25322786 12.83599544 15.87782776 20.46031449 15.0625 28.25 C14.97564941 29.09602783 14.88879883 29.94205566 14.79931641 30.8137207 C14.12973641 36.87026359 14.12973641 36.87026359 13 38 C3.6708497 38.51325422 -5.70143453 37.72022084 -15 37 C-22.53560806 13.2838731 -22.53560806 13.2838731 -22 4 C-19.64856824 3.32210976 -17.29461376 2.65759253 -14.9375 2 C-13.95233398 1.71382813 -13.95233398 1.71382813 -12.94726562 1.421875 C-8.5532504 0.20973287 -4.59660573 -0.45009603 0 0 Z " fill="#96CAFA" transform="translate(23,1)"/>
<path d="M0 0 C5.29145847 -0.18246409 8.96306461 0.16707509 14 2 C13.50044827 12.12249556 12.56616253 21.97655978 11 32 C5.72 31.67 0.44 31.34 -5 31 C-5 30.34 -5 29.68 -5 29 C-2.03 28.34 0.94 27.68 4 27 C4.93762355 23.33052494 4.98460247 20.85639878 4.00390625 17.20703125 C3.66069336 15.8912207 3.66069336 15.8912207 3.31054688 14.54882812 C3.06369141 13.64583984 2.81683594 12.74285156 2.5625 11.8125 C2.08281296 10.00699362 1.60486074 8.20102516 1.12890625 6.39453125 C0.91306885 5.59893799 0.69723145 4.80334473 0.47485352 3.98364258 C0 2 0 2 0 0 Z " fill="#D8E9F8" transform="translate(24,6)"/>
<path d="M0 0 C1.58984375 1.4609375 1.58984375 1.4609375 3 3 C5.66589008 3.54138267 5.66589008 3.54138267 8.5625 3.625 C13.83856502 3.91928251 13.83856502 3.91928251 16 5 C16.25322786 12.83599544 15.87782776 20.46031449 15.0625 28.25 C14.97564941 29.09602783 14.88879883 29.94205566 14.79931641 30.8137207 C14.12973641 36.87026359 14.12973641 36.87026359 13 38 C3.6708497 38.51325422 -5.70143453 37.72022084 -15 37 C-22.53560806 13.2838731 -22.53560806 13.2838731 -22 4 C-19.64856824 3.32210976 -17.29461376 2.65759253 -14.9375 2 C-13.95233398 1.71382813 -13.95233398 1.71382813 -12.94726562 1.421875 C-8.5532504 0.20973287 -4.59660573 -0.45009603 0 0 Z M-12.6875 3 C-13.38939453 3.19078125 -14.09128906 3.3815625 -14.81445312 3.578125 C-16.54388762 4.04871942 -18.27206874 4.52391562 -20 5 C-21.38475234 9.58033466 -20.47560216 13.26526646 -19.25 17.75 C-18.9730127 18.80864258 -18.9730127 18.80864258 -18.69042969 19.88867188 C-17.33137374 25.00097559 -15.77958044 30.01717478 -14 35 C-7.31006781 34.46048934 -1.36539272 33.11293829 5 31 C4.39551275 24.75570904 3.44074076 18.74254447 2.0625 12.625 C1.89298828 11.83222656 1.72347656 11.03945312 1.54882812 10.22265625 C1.37931641 9.46082031 1.20980469 8.69898438 1.03515625 7.9140625 C0.8844165 7.2329541 0.73367676 6.5518457 0.57836914 5.85009766 C-0.00009669 3.69525469 -0.00009669 3.69525469 -2 1 C-5.76326587 1 -9.09117211 2.00605691 -12.6875 3 Z M1 5 C1.27714844 6.2065625 1.55429687 7.413125 1.83984375 8.65625 C2.20593077 10.27078763 2.57180483 11.88537357 2.9375 13.5 C3.11990234 14.29148437 3.30230469 15.08296875 3.49023438 15.8984375 C4.62304583 20.92400105 5.44199204 25.87807429 6 31 C2.6828589 32.4216319 -0.44219804 33.39009109 -4 34 C-4 34.66 -4 35.32 -4 36 C1.28 36.33 6.56 36.66 12 37 C13.56616253 26.97655978 14.50044827 17.12249556 15 7 C10.07262981 5.02905192 6.21979128 4.8200072 1 5 Z " fill="#274D70" transform="translate(23,1)"/>
</svg>
